<mxfile host="app.diagrams.net" agent="Mozilla/5.0 (Windows NT 10.0; Win64; x64) AppleWebKit/537.36 (KHTML, like Gecko) Chrome/135.0.0.0 Safari/537.36" version="26.2.14">
  <diagram name="Страница — 1" id="H3wgLwU8cCIW_uEjad6Y">
    <mxGraphModel dx="4901" dy="3315" grid="1" gridSize="10" guides="1" tooltips="1" connect="1" arrows="1" fold="1" page="1" pageScale="1" pageWidth="827" pageHeight="1169" math="0" shadow="0">
      <root>
        <mxCell id="0" />
        <mxCell id="1" parent="0" />
        <mxCell id="8OBh5h36qt_DKstB2xnP-3" value="авторизация и регистрация" style="shape=umlFrame;whiteSpace=wrap;html=1;pointerEvents=0;width=130;height=30;" vertex="1" parent="1">
          <mxGeometry x="240" y="-80" width="320" height="600" as="geometry" />
        </mxCell>
        <mxCell id="8OBh5h36qt_DKstB2xnP-4" value="Открыть приложение" style="rounded=1;whiteSpace=wrap;html=1;" vertex="1" parent="1">
          <mxGeometry x="350" y="-30" width="100" height="30" as="geometry" />
        </mxCell>
        <mxCell id="8OBh5h36qt_DKstB2xnP-5" value="Есть аккаунт?" style="shape=hexagon;perimeter=hexagonPerimeter2;whiteSpace=wrap;html=1;fixedSize=1;" vertex="1" parent="1">
          <mxGeometry x="350" y="30" width="100" height="30" as="geometry" />
        </mxCell>
        <mxCell id="8OBh5h36qt_DKstB2xnP-6" value="Вход" style="rounded=1;whiteSpace=wrap;html=1;" vertex="1" parent="1">
          <mxGeometry x="250" y="80" width="100" height="30" as="geometry" />
        </mxCell>
        <mxCell id="8OBh5h36qt_DKstB2xnP-7" value="Регистрация" style="rounded=1;whiteSpace=wrap;html=1;" vertex="1" parent="1">
          <mxGeometry x="440" y="80" width="100" height="30" as="geometry" />
        </mxCell>
        <mxCell id="8OBh5h36qt_DKstB2xnP-8" value="Регистрация" style="rounded=1;whiteSpace=wrap;html=1;" vertex="1" parent="1">
          <mxGeometry x="440" y="80" width="100" height="30" as="geometry" />
        </mxCell>
        <mxCell id="8OBh5h36qt_DKstB2xnP-9" value="&lt;span style=&quot;font-weight: normal;&quot;&gt;Подтвердить email&lt;/span&gt;" style="rounded=1;whiteSpace=wrap;html=1;fontStyle=1" vertex="1" parent="1">
          <mxGeometry x="440" y="140" width="100" height="30" as="geometry" />
        </mxCell>
        <mxCell id="8OBh5h36qt_DKstB2xnP-12" value="Вход" style="rounded=1;whiteSpace=wrap;html=1;" vertex="1" parent="1">
          <mxGeometry x="440" y="200" width="100" height="30" as="geometry" />
        </mxCell>
        <mxCell id="8OBh5h36qt_DKstB2xnP-14" value="" style="rhombus;whiteSpace=wrap;html=1;" vertex="1" parent="1">
          <mxGeometry x="390" y="260" width="20" height="20" as="geometry" />
        </mxCell>
        <mxCell id="8OBh5h36qt_DKstB2xnP-15" value="Забыли пароль?" style="shape=hexagon;perimeter=hexagonPerimeter2;whiteSpace=wrap;html=1;fixedSize=1;" vertex="1" parent="1">
          <mxGeometry x="347.5" y="310" width="105" height="30" as="geometry" />
        </mxCell>
        <mxCell id="8OBh5h36qt_DKstB2xnP-16" value="Запрос кода для сброса пароля" style="rounded=1;whiteSpace=wrap;html=1;" vertex="1" parent="1">
          <mxGeometry x="350" y="370" width="100" height="30" as="geometry" />
        </mxCell>
        <mxCell id="8OBh5h36qt_DKstB2xnP-17" value="Сброс пароля" style="rounded=1;whiteSpace=wrap;html=1;" vertex="1" parent="1">
          <mxGeometry x="350" y="430" width="100" height="30" as="geometry" />
        </mxCell>
        <mxCell id="8OBh5h36qt_DKstB2xnP-19" value="" style="ellipse;html=1;shape=startState;fillColor=#000000;strokeColor=none;" vertex="1" parent="1">
          <mxGeometry x="385" y="-120" width="30" height="30" as="geometry" />
        </mxCell>
        <mxCell id="8OBh5h36qt_DKstB2xnP-23" value="" style="endArrow=classic;html=1;rounded=0;exitX=0.5;exitY=1;exitDx=0;exitDy=0;entryX=0.5;entryY=0;entryDx=0;entryDy=0;" edge="1" parent="1" source="8OBh5h36qt_DKstB2xnP-19" target="8OBh5h36qt_DKstB2xnP-4">
          <mxGeometry width="50" height="50" relative="1" as="geometry">
            <mxPoint x="310" y="90" as="sourcePoint" />
            <mxPoint x="360" y="40" as="targetPoint" />
          </mxGeometry>
        </mxCell>
        <mxCell id="8OBh5h36qt_DKstB2xnP-24" value="" style="endArrow=classic;html=1;rounded=0;exitX=0.5;exitY=1;exitDx=0;exitDy=0;entryX=0.5;entryY=0;entryDx=0;entryDy=0;" edge="1" parent="1" source="8OBh5h36qt_DKstB2xnP-4" target="8OBh5h36qt_DKstB2xnP-5">
          <mxGeometry width="50" height="50" relative="1" as="geometry">
            <mxPoint x="310" y="60" as="sourcePoint" />
            <mxPoint x="360" y="10" as="targetPoint" />
          </mxGeometry>
        </mxCell>
        <mxCell id="8OBh5h36qt_DKstB2xnP-25" value="" style="endArrow=classic;html=1;rounded=0;exitX=0;exitY=0.5;exitDx=0;exitDy=0;entryX=0.5;entryY=0;entryDx=0;entryDy=0;" edge="1" parent="1" source="8OBh5h36qt_DKstB2xnP-5" target="8OBh5h36qt_DKstB2xnP-6">
          <mxGeometry width="50" height="50" relative="1" as="geometry">
            <mxPoint x="290" y="50" as="sourcePoint" />
            <mxPoint x="340" as="targetPoint" />
            <Array as="points">
              <mxPoint x="300" y="45" />
            </Array>
          </mxGeometry>
        </mxCell>
        <mxCell id="8OBh5h36qt_DKstB2xnP-26" value="Да" style="edgeLabel;html=1;align=center;verticalAlign=bottom;resizable=0;points=[];labelPosition=center;verticalLabelPosition=top;" vertex="1" connectable="0" parent="8OBh5h36qt_DKstB2xnP-25">
          <mxGeometry x="-0.2504" y="1" relative="1" as="geometry">
            <mxPoint y="-1" as="offset" />
          </mxGeometry>
        </mxCell>
        <mxCell id="8OBh5h36qt_DKstB2xnP-27" value="" style="endArrow=classic;html=1;rounded=0;exitX=1;exitY=0.5;exitDx=0;exitDy=0;entryX=0.5;entryY=0;entryDx=0;entryDy=0;" edge="1" parent="1" source="8OBh5h36qt_DKstB2xnP-5" target="8OBh5h36qt_DKstB2xnP-8">
          <mxGeometry width="50" height="50" relative="1" as="geometry">
            <mxPoint x="450" y="50" as="sourcePoint" />
            <mxPoint x="500" as="targetPoint" />
            <Array as="points">
              <mxPoint x="490" y="45" />
            </Array>
          </mxGeometry>
        </mxCell>
        <mxCell id="8OBh5h36qt_DKstB2xnP-28" value="Нет" style="edgeLabel;html=1;align=center;verticalAlign=bottom;resizable=0;points=[];labelPosition=center;verticalLabelPosition=top;" vertex="1" connectable="0" parent="8OBh5h36qt_DKstB2xnP-27">
          <mxGeometry x="-0.4629" y="1" relative="1" as="geometry">
            <mxPoint as="offset" />
          </mxGeometry>
        </mxCell>
        <mxCell id="8OBh5h36qt_DKstB2xnP-29" value="" style="endArrow=classic;html=1;rounded=0;exitX=0.5;exitY=1;exitDx=0;exitDy=0;entryX=0;entryY=0.5;entryDx=0;entryDy=0;" edge="1" parent="1" source="8OBh5h36qt_DKstB2xnP-6" target="8OBh5h36qt_DKstB2xnP-14">
          <mxGeometry width="50" height="50" relative="1" as="geometry">
            <mxPoint x="305" y="170" as="sourcePoint" />
            <mxPoint x="355" y="120" as="targetPoint" />
            <Array as="points">
              <mxPoint x="300" y="270" />
            </Array>
          </mxGeometry>
        </mxCell>
        <mxCell id="8OBh5h36qt_DKstB2xnP-30" value="" style="endArrow=classic;html=1;rounded=0;exitX=0.5;exitY=1;exitDx=0;exitDy=0;entryX=0.5;entryY=0;entryDx=0;entryDy=0;" edge="1" parent="1" source="8OBh5h36qt_DKstB2xnP-8" target="8OBh5h36qt_DKstB2xnP-9">
          <mxGeometry width="50" height="50" relative="1" as="geometry">
            <mxPoint x="380" y="170" as="sourcePoint" />
            <mxPoint x="430" y="120" as="targetPoint" />
          </mxGeometry>
        </mxCell>
        <mxCell id="8OBh5h36qt_DKstB2xnP-31" value="" style="endArrow=classic;html=1;rounded=0;exitX=0.5;exitY=1;exitDx=0;exitDy=0;entryX=0.5;entryY=0;entryDx=0;entryDy=0;" edge="1" parent="1" source="8OBh5h36qt_DKstB2xnP-9" target="8OBh5h36qt_DKstB2xnP-12">
          <mxGeometry width="50" height="50" relative="1" as="geometry">
            <mxPoint x="380" y="220" as="sourcePoint" />
            <mxPoint x="430" y="170" as="targetPoint" />
          </mxGeometry>
        </mxCell>
        <mxCell id="8OBh5h36qt_DKstB2xnP-32" value="" style="endArrow=classic;html=1;rounded=0;exitX=0.5;exitY=1;exitDx=0;exitDy=0;entryX=1;entryY=0.5;entryDx=0;entryDy=0;" edge="1" parent="1" source="8OBh5h36qt_DKstB2xnP-12" target="8OBh5h36qt_DKstB2xnP-14">
          <mxGeometry width="50" height="50" relative="1" as="geometry">
            <mxPoint x="480" y="300" as="sourcePoint" />
            <mxPoint x="530" y="250" as="targetPoint" />
            <Array as="points">
              <mxPoint x="490" y="270" />
            </Array>
          </mxGeometry>
        </mxCell>
        <mxCell id="8OBh5h36qt_DKstB2xnP-33" value="" style="endArrow=classic;html=1;rounded=0;exitX=0.5;exitY=1;exitDx=0;exitDy=0;" edge="1" parent="1" source="8OBh5h36qt_DKstB2xnP-14">
          <mxGeometry width="50" height="50" relative="1" as="geometry">
            <mxPoint x="330" y="260" as="sourcePoint" />
            <mxPoint x="400" y="310" as="targetPoint" />
          </mxGeometry>
        </mxCell>
        <mxCell id="8OBh5h36qt_DKstB2xnP-35" value="" style="rhombus;whiteSpace=wrap;html=1;" vertex="1" parent="1">
          <mxGeometry x="390" y="490" width="20" height="20" as="geometry" />
        </mxCell>
        <mxCell id="8OBh5h36qt_DKstB2xnP-36" value="" style="endArrow=classic;html=1;rounded=0;exitX=1;exitY=0.5;exitDx=0;exitDy=0;entryX=1;entryY=0.5;entryDx=0;entryDy=0;" edge="1" parent="1" source="8OBh5h36qt_DKstB2xnP-15" target="8OBh5h36qt_DKstB2xnP-35">
          <mxGeometry width="50" height="50" relative="1" as="geometry">
            <mxPoint x="470" y="330" as="sourcePoint" />
            <mxPoint x="520" y="280" as="targetPoint" />
            <Array as="points">
              <mxPoint x="500" y="325" />
              <mxPoint x="500" y="500" />
            </Array>
          </mxGeometry>
        </mxCell>
        <mxCell id="8OBh5h36qt_DKstB2xnP-37" value="Нет" style="edgeLabel;html=1;align=center;verticalAlign=bottom;resizable=0;points=[];labelPosition=center;verticalLabelPosition=top;" vertex="1" connectable="0" parent="8OBh5h36qt_DKstB2xnP-36">
          <mxGeometry x="-0.9021" relative="1" as="geometry">
            <mxPoint as="offset" />
          </mxGeometry>
        </mxCell>
        <mxCell id="8OBh5h36qt_DKstB2xnP-38" value="" style="endArrow=classic;html=1;rounded=0;exitX=0.5;exitY=1;exitDx=0;exitDy=0;entryX=0.5;entryY=0;entryDx=0;entryDy=0;" edge="1" parent="1" source="8OBh5h36qt_DKstB2xnP-15" target="8OBh5h36qt_DKstB2xnP-16">
          <mxGeometry width="50" height="50" relative="1" as="geometry">
            <mxPoint x="280" y="380" as="sourcePoint" />
            <mxPoint x="330" y="330" as="targetPoint" />
          </mxGeometry>
        </mxCell>
        <mxCell id="8OBh5h36qt_DKstB2xnP-39" value="Да" style="edgeLabel;html=1;align=center;verticalAlign=middle;resizable=0;points=[];" vertex="1" connectable="0" parent="8OBh5h36qt_DKstB2xnP-38">
          <mxGeometry x="-0.3647" y="-1" relative="1" as="geometry">
            <mxPoint as="offset" />
          </mxGeometry>
        </mxCell>
        <mxCell id="8OBh5h36qt_DKstB2xnP-43" value="" style="endArrow=classic;html=1;rounded=0;exitX=0.5;exitY=1;exitDx=0;exitDy=0;entryX=0.5;entryY=0;entryDx=0;entryDy=0;" edge="1" parent="1" source="8OBh5h36qt_DKstB2xnP-16" target="8OBh5h36qt_DKstB2xnP-17">
          <mxGeometry width="50" height="50" relative="1" as="geometry">
            <mxPoint x="290" y="450" as="sourcePoint" />
            <mxPoint x="340" y="400" as="targetPoint" />
          </mxGeometry>
        </mxCell>
        <mxCell id="8OBh5h36qt_DKstB2xnP-44" value="" style="endArrow=classic;html=1;rounded=0;exitX=0.5;exitY=1;exitDx=0;exitDy=0;entryX=0.5;entryY=0;entryDx=0;entryDy=0;" edge="1" parent="1" source="8OBh5h36qt_DKstB2xnP-17" target="8OBh5h36qt_DKstB2xnP-35">
          <mxGeometry width="50" height="50" relative="1" as="geometry">
            <mxPoint x="300" y="520" as="sourcePoint" />
            <mxPoint x="350" y="470" as="targetPoint" />
          </mxGeometry>
        </mxCell>
        <mxCell id="8OBh5h36qt_DKstB2xnP-45" value="Математичсеское моделирование" style="shape=umlFrame;whiteSpace=wrap;html=1;pointerEvents=0;width=130;height=30;" vertex="1" parent="1">
          <mxGeometry x="-100" y="780" width="340" height="980" as="geometry" />
        </mxCell>
        <mxCell id="8OBh5h36qt_DKstB2xnP-46" value="Имитационное моделирование" style="shape=umlFrame;whiteSpace=wrap;html=1;pointerEvents=0;width=120;height=30;" vertex="1" parent="1">
          <mxGeometry x="560" y="760" width="340" height="550" as="geometry" />
        </mxCell>
        <mxCell id="8OBh5h36qt_DKstB2xnP-49" value="Тип моделирования?" style="shape=hexagon;perimeter=hexagonPerimeter2;whiteSpace=wrap;html=1;fixedSize=1;" vertex="1" parent="1">
          <mxGeometry x="330" y="710" width="140" height="30" as="geometry" />
        </mxCell>
        <mxCell id="8OBh5h36qt_DKstB2xnP-51" value="Создать новую модель?" style="shape=hexagon;perimeter=hexagonPerimeter2;whiteSpace=wrap;html=1;fixedSize=1;" vertex="1" parent="1">
          <mxGeometry y="810" width="160" height="30" as="geometry" />
        </mxCell>
        <mxCell id="8OBh5h36qt_DKstB2xnP-52" value="Выбрать модель" style="rounded=1;whiteSpace=wrap;html=1;" vertex="1" parent="1">
          <mxGeometry x="30" y="1040" width="100" height="30" as="geometry" />
        </mxCell>
        <mxCell id="8OBh5h36qt_DKstB2xnP-53" value="" style="rhombus;whiteSpace=wrap;html=1;" vertex="1" parent="1">
          <mxGeometry x="70" y="990" width="20" height="20" as="geometry" />
        </mxCell>
        <mxCell id="8OBh5h36qt_DKstB2xnP-56" value="Внести данные новой модели" style="rounded=1;whiteSpace=wrap;html=1;" vertex="1" parent="1">
          <mxGeometry x="30" y="870" width="100" height="30" as="geometry" />
        </mxCell>
        <mxCell id="8OBh5h36qt_DKstB2xnP-57" value="Сохранить новую модель" style="rounded=1;whiteSpace=wrap;html=1;" vertex="1" parent="1">
          <mxGeometry x="30" y="930" width="100" height="30" as="geometry" />
        </mxCell>
        <mxCell id="8OBh5h36qt_DKstB2xnP-59" value="Редактировать модель?" style="shape=hexagon;perimeter=hexagonPerimeter2;whiteSpace=wrap;html=1;fixedSize=1;" vertex="1" parent="1">
          <mxGeometry y="1100" width="160" height="30" as="geometry" />
        </mxCell>
        <mxCell id="8OBh5h36qt_DKstB2xnP-60" value="Изменить данные модели" style="rounded=1;whiteSpace=wrap;html=1;" vertex="1" parent="1">
          <mxGeometry x="30" y="1160" width="100" height="30" as="geometry" />
        </mxCell>
        <mxCell id="8OBh5h36qt_DKstB2xnP-61" value="" style="rhombus;whiteSpace=wrap;html=1;" vertex="1" parent="1">
          <mxGeometry x="70" y="1220" width="20" height="20" as="geometry" />
        </mxCell>
        <mxCell id="8OBh5h36qt_DKstB2xnP-62" value="Запустить симуляцию" style="rounded=1;whiteSpace=wrap;html=1;" vertex="1" parent="1">
          <mxGeometry x="30" y="1270" width="100" height="30" as="geometry" />
        </mxCell>
        <mxCell id="8OBh5h36qt_DKstB2xnP-63" value="Получить результат расчетов" style="rounded=1;whiteSpace=wrap;html=1;" vertex="1" parent="1">
          <mxGeometry x="22.5" y="1330" width="115" height="30" as="geometry" />
        </mxCell>
        <mxCell id="8OBh5h36qt_DKstB2xnP-64" value="Использовать AI - анализ?" style="shape=hexagon;perimeter=hexagonPerimeter2;whiteSpace=wrap;html=1;fixedSize=1;" vertex="1" parent="1">
          <mxGeometry x="-10" y="1390" width="180" height="30" as="geometry" />
        </mxCell>
        <mxCell id="8OBh5h36qt_DKstB2xnP-65" value="" style="rhombus;whiteSpace=wrap;html=1;" vertex="1" parent="1">
          <mxGeometry x="70" y="1630" width="20" height="20" as="geometry" />
        </mxCell>
        <mxCell id="8OBh5h36qt_DKstB2xnP-67" value="Выбрать документ" style="rounded=1;whiteSpace=wrap;html=1;" vertex="1" parent="1">
          <mxGeometry x="22.5" y="1450" width="115" height="30" as="geometry" />
        </mxCell>
        <mxCell id="8OBh5h36qt_DKstB2xnP-68" value="Управление документами" style="shape=umlFrame;whiteSpace=wrap;html=1;pointerEvents=0;width=100;height=30;" vertex="1" parent="1">
          <mxGeometry x="280" y="1480" width="240" height="770" as="geometry" />
        </mxCell>
        <mxCell id="8OBh5h36qt_DKstB2xnP-69" value="Посмотреть список документов" style="rounded=1;whiteSpace=wrap;html=1;" vertex="1" parent="1">
          <mxGeometry x="342.5" y="1520" width="115" height="30" as="geometry" />
        </mxCell>
        <mxCell id="8OBh5h36qt_DKstB2xnP-70" value="Выбрать документ?" style="shape=hexagon;perimeter=hexagonPerimeter2;whiteSpace=wrap;html=1;fixedSize=1;" vertex="1" parent="1">
          <mxGeometry x="330" y="1580" width="140" height="30" as="geometry" />
        </mxCell>
        <mxCell id="8OBh5h36qt_DKstB2xnP-71" value="Использовать выбранный документ" style="rounded=1;whiteSpace=wrap;html=1;" vertex="1" parent="1">
          <mxGeometry x="332.5" y="1640" width="137.5" height="30" as="geometry" />
        </mxCell>
        <mxCell id="8OBh5h36qt_DKstB2xnP-72" value="Запустить AI - анализ" style="rounded=1;whiteSpace=wrap;html=1;" vertex="1" parent="1">
          <mxGeometry x="22.5" y="1510" width="115" height="30" as="geometry" />
        </mxCell>
        <mxCell id="8OBh5h36qt_DKstB2xnP-73" value="Посмотреть сравнение" style="rounded=1;whiteSpace=wrap;html=1;" vertex="1" parent="1">
          <mxGeometry x="22.5" y="1570" width="115" height="30" as="geometry" />
        </mxCell>
        <mxCell id="8OBh5h36qt_DKstB2xnP-74" value="Экспорт отчета" style="rounded=1;whiteSpace=wrap;html=1;" vertex="1" parent="1">
          <mxGeometry x="22.5" y="1680" width="115" height="30" as="geometry" />
        </mxCell>
        <mxCell id="8OBh5h36qt_DKstB2xnP-76" value="" style="endArrow=classic;html=1;rounded=0;exitX=0;exitY=0.5;exitDx=0;exitDy=0;entryX=0.5;entryY=0;entryDx=0;entryDy=0;" edge="1" parent="1" source="8OBh5h36qt_DKstB2xnP-49" target="8OBh5h36qt_DKstB2xnP-51">
          <mxGeometry width="50" height="50" relative="1" as="geometry">
            <mxPoint x="310" y="970" as="sourcePoint" />
            <mxPoint x="360" y="920" as="targetPoint" />
            <Array as="points">
              <mxPoint x="80" y="725" />
            </Array>
          </mxGeometry>
        </mxCell>
        <mxCell id="8OBh5h36qt_DKstB2xnP-77" value="Математическое" style="edgeLabel;html=1;align=center;verticalAlign=bottom;resizable=0;points=[];labelPosition=center;verticalLabelPosition=top;" vertex="1" connectable="0" parent="8OBh5h36qt_DKstB2xnP-76">
          <mxGeometry x="-0.3672" y="-2" relative="1" as="geometry">
            <mxPoint as="offset" />
          </mxGeometry>
        </mxCell>
        <mxCell id="8OBh5h36qt_DKstB2xnP-78" value="" style="endArrow=classic;html=1;rounded=0;exitX=0.5;exitY=1;exitDx=0;exitDy=0;entryX=0.5;entryY=0;entryDx=0;entryDy=0;" edge="1" parent="1" source="8OBh5h36qt_DKstB2xnP-51" target="8OBh5h36qt_DKstB2xnP-56">
          <mxGeometry width="50" height="50" relative="1" as="geometry">
            <mxPoint x="160" y="900" as="sourcePoint" />
            <mxPoint x="210" y="850" as="targetPoint" />
          </mxGeometry>
        </mxCell>
        <mxCell id="8OBh5h36qt_DKstB2xnP-79" value="Да" style="edgeLabel;html=1;align=center;verticalAlign=middle;resizable=0;points=[];" vertex="1" connectable="0" parent="8OBh5h36qt_DKstB2xnP-78">
          <mxGeometry x="-0.4" y="-1" relative="1" as="geometry">
            <mxPoint as="offset" />
          </mxGeometry>
        </mxCell>
        <mxCell id="8OBh5h36qt_DKstB2xnP-80" value="" style="endArrow=classic;html=1;rounded=0;exitX=1;exitY=0.5;exitDx=0;exitDy=0;entryX=1;entryY=0.5;entryDx=0;entryDy=0;" edge="1" parent="1" source="8OBh5h36qt_DKstB2xnP-51" target="8OBh5h36qt_DKstB2xnP-53">
          <mxGeometry width="50" height="50" relative="1" as="geometry">
            <mxPoint x="170" y="900" as="sourcePoint" />
            <mxPoint x="220" y="850" as="targetPoint" />
            <Array as="points">
              <mxPoint x="200" y="825" />
              <mxPoint x="200" y="1000" />
            </Array>
          </mxGeometry>
        </mxCell>
        <mxCell id="8OBh5h36qt_DKstB2xnP-81" value="Нет" style="edgeLabel;html=1;align=center;verticalAlign=bottom;resizable=0;points=[];labelPosition=center;verticalLabelPosition=top;" vertex="1" connectable="0" parent="8OBh5h36qt_DKstB2xnP-80">
          <mxGeometry x="-0.8919" y="2" relative="1" as="geometry">
            <mxPoint as="offset" />
          </mxGeometry>
        </mxCell>
        <mxCell id="8OBh5h36qt_DKstB2xnP-82" value="" style="endArrow=classic;html=1;rounded=0;exitX=0.5;exitY=1;exitDx=0;exitDy=0;entryX=0.5;entryY=0;entryDx=0;entryDy=0;" edge="1" parent="1" source="8OBh5h36qt_DKstB2xnP-56" target="8OBh5h36qt_DKstB2xnP-57">
          <mxGeometry width="50" height="50" relative="1" as="geometry">
            <mxPoint x="140" y="940" as="sourcePoint" />
            <mxPoint x="190" y="890" as="targetPoint" />
          </mxGeometry>
        </mxCell>
        <mxCell id="8OBh5h36qt_DKstB2xnP-83" value="" style="endArrow=classic;html=1;rounded=0;exitX=0.5;exitY=1;exitDx=0;exitDy=0;entryX=0.5;entryY=0;entryDx=0;entryDy=0;" edge="1" parent="1" source="8OBh5h36qt_DKstB2xnP-57" target="8OBh5h36qt_DKstB2xnP-53">
          <mxGeometry width="50" height="50" relative="1" as="geometry">
            <mxPoint x="130" y="990" as="sourcePoint" />
            <mxPoint x="180" y="940" as="targetPoint" />
          </mxGeometry>
        </mxCell>
        <mxCell id="8OBh5h36qt_DKstB2xnP-84" value="" style="endArrow=classic;html=1;rounded=0;exitX=0.5;exitY=1;exitDx=0;exitDy=0;entryX=0.5;entryY=0;entryDx=0;entryDy=0;" edge="1" parent="1" source="8OBh5h36qt_DKstB2xnP-53" target="8OBh5h36qt_DKstB2xnP-52">
          <mxGeometry width="50" height="50" relative="1" as="geometry">
            <mxPoint x="140" y="1060" as="sourcePoint" />
            <mxPoint x="190" y="1010" as="targetPoint" />
          </mxGeometry>
        </mxCell>
        <mxCell id="8OBh5h36qt_DKstB2xnP-85" value="" style="endArrow=classic;html=1;rounded=0;exitX=0.5;exitY=1;exitDx=0;exitDy=0;entryX=0.5;entryY=0;entryDx=0;entryDy=0;" edge="1" parent="1" source="8OBh5h36qt_DKstB2xnP-52" target="8OBh5h36qt_DKstB2xnP-59">
          <mxGeometry width="50" height="50" relative="1" as="geometry">
            <mxPoint x="150" y="1100" as="sourcePoint" />
            <mxPoint x="200" y="1050" as="targetPoint" />
          </mxGeometry>
        </mxCell>
        <mxCell id="8OBh5h36qt_DKstB2xnP-86" value="" style="endArrow=classic;html=1;rounded=0;exitX=0.5;exitY=1;exitDx=0;exitDy=0;entryX=0.5;entryY=0;entryDx=0;entryDy=0;" edge="1" parent="1" source="8OBh5h36qt_DKstB2xnP-59" target="8OBh5h36qt_DKstB2xnP-60">
          <mxGeometry width="50" height="50" relative="1" as="geometry">
            <mxPoint x="160" y="1180" as="sourcePoint" />
            <mxPoint x="210" y="1130" as="targetPoint" />
          </mxGeometry>
        </mxCell>
        <mxCell id="8OBh5h36qt_DKstB2xnP-87" value="Да" style="edgeLabel;html=1;align=center;verticalAlign=middle;resizable=0;points=[];" vertex="1" connectable="0" parent="8OBh5h36qt_DKstB2xnP-86">
          <mxGeometry x="-0.1143" relative="1" as="geometry">
            <mxPoint as="offset" />
          </mxGeometry>
        </mxCell>
        <mxCell id="8OBh5h36qt_DKstB2xnP-88" value="" style="endArrow=classic;html=1;rounded=0;exitX=1;exitY=0.5;exitDx=0;exitDy=0;entryX=1;entryY=0.5;entryDx=0;entryDy=0;" edge="1" parent="1" source="8OBh5h36qt_DKstB2xnP-59" target="8OBh5h36qt_DKstB2xnP-61">
          <mxGeometry width="50" height="50" relative="1" as="geometry">
            <mxPoint x="170" y="1130" as="sourcePoint" />
            <mxPoint x="220" y="1080" as="targetPoint" />
            <Array as="points">
              <mxPoint x="200" y="1115" />
              <mxPoint x="200" y="1230" />
            </Array>
          </mxGeometry>
        </mxCell>
        <mxCell id="8OBh5h36qt_DKstB2xnP-89" value="" style="endArrow=classic;html=1;rounded=0;exitX=0.5;exitY=1;exitDx=0;exitDy=0;entryX=0.5;entryY=0;entryDx=0;entryDy=0;" edge="1" parent="1" source="8OBh5h36qt_DKstB2xnP-60" target="8OBh5h36qt_DKstB2xnP-61">
          <mxGeometry width="50" height="50" relative="1" as="geometry">
            <mxPoint x="140" y="1230" as="sourcePoint" />
            <mxPoint x="190" y="1180" as="targetPoint" />
          </mxGeometry>
        </mxCell>
        <mxCell id="8OBh5h36qt_DKstB2xnP-90" value="" style="endArrow=classic;html=1;rounded=0;exitX=0.5;exitY=1;exitDx=0;exitDy=0;entryX=0.5;entryY=0;entryDx=0;entryDy=0;" edge="1" parent="1" source="8OBh5h36qt_DKstB2xnP-61" target="8OBh5h36qt_DKstB2xnP-62">
          <mxGeometry width="50" height="50" relative="1" as="geometry">
            <mxPoint x="10" y="1270" as="sourcePoint" />
            <mxPoint x="60" y="1220" as="targetPoint" />
          </mxGeometry>
        </mxCell>
        <mxCell id="8OBh5h36qt_DKstB2xnP-91" value="" style="endArrow=classic;html=1;rounded=0;exitX=0.5;exitY=1;exitDx=0;exitDy=0;entryX=0.5;entryY=0;entryDx=0;entryDy=0;" edge="1" parent="1" source="8OBh5h36qt_DKstB2xnP-62" target="8OBh5h36qt_DKstB2xnP-63">
          <mxGeometry width="50" height="50" relative="1" as="geometry">
            <mxPoint x="160" y="1330" as="sourcePoint" />
            <mxPoint x="210" y="1280" as="targetPoint" />
          </mxGeometry>
        </mxCell>
        <mxCell id="8OBh5h36qt_DKstB2xnP-92" value="" style="endArrow=classic;html=1;rounded=0;exitX=0.5;exitY=1;exitDx=0;exitDy=0;entryX=0.5;entryY=0;entryDx=0;entryDy=0;" edge="1" parent="1" source="8OBh5h36qt_DKstB2xnP-63" target="8OBh5h36qt_DKstB2xnP-64">
          <mxGeometry width="50" height="50" relative="1" as="geometry">
            <mxPoint x="160" y="1380" as="sourcePoint" />
            <mxPoint x="210" y="1330" as="targetPoint" />
          </mxGeometry>
        </mxCell>
        <mxCell id="8OBh5h36qt_DKstB2xnP-94" value="" style="endArrow=classic;html=1;rounded=0;exitX=0.5;exitY=1;exitDx=0;exitDy=0;entryX=0.5;entryY=0;entryDx=0;entryDy=0;" edge="1" parent="1" source="8OBh5h36qt_DKstB2xnP-64" target="8OBh5h36qt_DKstB2xnP-67">
          <mxGeometry width="50" height="50" relative="1" as="geometry">
            <mxPoint x="150" y="1460" as="sourcePoint" />
            <mxPoint x="200" y="1410" as="targetPoint" />
          </mxGeometry>
        </mxCell>
        <mxCell id="8OBh5h36qt_DKstB2xnP-95" value="Да" style="edgeLabel;html=1;align=center;verticalAlign=middle;resizable=0;points=[];" vertex="1" connectable="0" parent="8OBh5h36qt_DKstB2xnP-94">
          <mxGeometry x="-0.3524" y="-2" relative="1" as="geometry">
            <mxPoint as="offset" />
          </mxGeometry>
        </mxCell>
        <mxCell id="8OBh5h36qt_DKstB2xnP-96" value="" style="endArrow=classic;html=1;rounded=0;exitX=1;exitY=0.5;exitDx=0;exitDy=0;entryX=1;entryY=0.5;entryDx=0;entryDy=0;" edge="1" parent="1" source="8OBh5h36qt_DKstB2xnP-64" target="8OBh5h36qt_DKstB2xnP-65">
          <mxGeometry width="50" height="50" relative="1" as="geometry">
            <mxPoint x="170" y="1420" as="sourcePoint" />
            <mxPoint x="220" y="1370" as="targetPoint" />
            <Array as="points">
              <mxPoint x="200" y="1405" />
              <mxPoint x="200" y="1640" />
            </Array>
          </mxGeometry>
        </mxCell>
        <mxCell id="8OBh5h36qt_DKstB2xnP-106" value="Нет" style="edgeLabel;html=1;align=center;verticalAlign=bottom;resizable=0;points=[];labelPosition=center;verticalLabelPosition=top;" vertex="1" connectable="0" parent="8OBh5h36qt_DKstB2xnP-96">
          <mxGeometry x="-0.882" y="-3" relative="1" as="geometry">
            <mxPoint x="-12" y="-3" as="offset" />
          </mxGeometry>
        </mxCell>
        <mxCell id="8OBh5h36qt_DKstB2xnP-97" value="" style="endArrow=classic;html=1;rounded=0;exitX=0.5;exitY=1;exitDx=0;exitDy=0;entryX=0.5;entryY=0;entryDx=0;entryDy=0;" edge="1" parent="1" source="8OBh5h36qt_DKstB2xnP-103" target="8OBh5h36qt_DKstB2xnP-69">
          <mxGeometry width="50" height="50" relative="1" as="geometry">
            <mxPoint x="140" y="1470" as="sourcePoint" />
            <mxPoint x="190" y="1420" as="targetPoint" />
            <Array as="points">
              <mxPoint x="400" y="1460" />
            </Array>
          </mxGeometry>
        </mxCell>
        <mxCell id="8OBh5h36qt_DKstB2xnP-98" value="" style="endArrow=classic;html=1;rounded=0;exitX=0.5;exitY=1;exitDx=0;exitDy=0;entryX=0.5;entryY=0;entryDx=0;entryDy=0;" edge="1" parent="1" source="8OBh5h36qt_DKstB2xnP-69" target="8OBh5h36qt_DKstB2xnP-70">
          <mxGeometry width="50" height="50" relative="1" as="geometry">
            <mxPoint x="460" y="1560" as="sourcePoint" />
            <mxPoint x="510" y="1510" as="targetPoint" />
          </mxGeometry>
        </mxCell>
        <mxCell id="8OBh5h36qt_DKstB2xnP-100" value="" style="endArrow=classic;html=1;rounded=0;exitX=0.5;exitY=1;exitDx=0;exitDy=0;" edge="1" parent="1" source="8OBh5h36qt_DKstB2xnP-70">
          <mxGeometry width="50" height="50" relative="1" as="geometry">
            <mxPoint x="292.5" y="1650" as="sourcePoint" />
            <mxPoint x="400" y="1639" as="targetPoint" />
          </mxGeometry>
        </mxCell>
        <mxCell id="8OBh5h36qt_DKstB2xnP-102" value="Да" style="edgeLabel;html=1;align=center;verticalAlign=middle;resizable=0;points=[];" vertex="1" connectable="0" parent="8OBh5h36qt_DKstB2xnP-100">
          <mxGeometry x="-0.2581" y="-2" relative="1" as="geometry">
            <mxPoint as="offset" />
          </mxGeometry>
        </mxCell>
        <mxCell id="8OBh5h36qt_DKstB2xnP-101" value="" style="endArrow=classic;html=1;rounded=0;entryX=0.5;entryY=0;entryDx=0;entryDy=0;" edge="1" parent="1" target="8OBh5h36qt_DKstB2xnP-72">
          <mxGeometry width="50" height="50" relative="1" as="geometry">
            <mxPoint x="400" y="1670" as="sourcePoint" />
            <mxPoint x="470" y="1680" as="targetPoint" />
            <Array as="points">
              <mxPoint x="400" y="1690" />
              <mxPoint x="260" y="1690" />
              <mxPoint x="260" y="1500" />
              <mxPoint x="80" y="1500" />
            </Array>
          </mxGeometry>
        </mxCell>
        <mxCell id="8OBh5h36qt_DKstB2xnP-105" value="" style="endArrow=classic;html=1;rounded=0;exitX=1;exitY=0.333;exitDx=0;exitDy=0;entryX=0;entryY=0.5;entryDx=0;entryDy=0;exitPerimeter=0;" edge="1" parent="1" source="8OBh5h36qt_DKstB2xnP-67" target="8OBh5h36qt_DKstB2xnP-103">
          <mxGeometry width="50" height="50" relative="1" as="geometry">
            <mxPoint x="137" y="1460" as="sourcePoint" />
            <mxPoint x="400" y="1520" as="targetPoint" />
            <Array as="points" />
          </mxGeometry>
        </mxCell>
        <mxCell id="8OBh5h36qt_DKstB2xnP-103" value="" style="rhombus;whiteSpace=wrap;html=1;" vertex="1" parent="1">
          <mxGeometry x="390" y="1450" width="20" height="20" as="geometry" />
        </mxCell>
        <mxCell id="8OBh5h36qt_DKstB2xnP-107" value="" style="endArrow=classic;html=1;rounded=0;exitX=0.5;exitY=1;exitDx=0;exitDy=0;" edge="1" parent="1" source="8OBh5h36qt_DKstB2xnP-72" target="8OBh5h36qt_DKstB2xnP-73">
          <mxGeometry width="50" height="50" relative="1" as="geometry">
            <mxPoint x="-60" y="1690" as="sourcePoint" />
            <mxPoint x="-10" y="1640" as="targetPoint" />
          </mxGeometry>
        </mxCell>
        <mxCell id="8OBh5h36qt_DKstB2xnP-108" value="" style="endArrow=classic;html=1;rounded=0;exitX=0.5;exitY=1;exitDx=0;exitDy=0;entryX=0.5;entryY=0;entryDx=0;entryDy=0;" edge="1" parent="1" source="8OBh5h36qt_DKstB2xnP-73" target="8OBh5h36qt_DKstB2xnP-65">
          <mxGeometry width="50" height="50" relative="1" as="geometry">
            <mxPoint x="-10" y="1670" as="sourcePoint" />
            <mxPoint x="40" y="1620" as="targetPoint" />
          </mxGeometry>
        </mxCell>
        <mxCell id="8OBh5h36qt_DKstB2xnP-109" value="" style="endArrow=classic;html=1;rounded=0;exitX=0.5;exitY=1;exitDx=0;exitDy=0;entryX=0.5;entryY=0;entryDx=0;entryDy=0;" edge="1" parent="1" source="8OBh5h36qt_DKstB2xnP-65" target="8OBh5h36qt_DKstB2xnP-74">
          <mxGeometry width="50" height="50" relative="1" as="geometry">
            <mxPoint x="-60" y="1690" as="sourcePoint" />
            <mxPoint x="-10" y="1640" as="targetPoint" />
          </mxGeometry>
        </mxCell>
        <mxCell id="8OBh5h36qt_DKstB2xnP-110" value="" style="rhombus;whiteSpace=wrap;html=1;" vertex="1" parent="1">
          <mxGeometry x="390" y="1710" width="20" height="20" as="geometry" />
        </mxCell>
        <mxCell id="8OBh5h36qt_DKstB2xnP-111" value="" style="endArrow=classic;html=1;rounded=0;exitX=1;exitY=0.5;exitDx=0;exitDy=0;entryX=1;entryY=0.5;entryDx=0;entryDy=0;" edge="1" parent="1" source="8OBh5h36qt_DKstB2xnP-70" target="8OBh5h36qt_DKstB2xnP-110">
          <mxGeometry width="50" height="50" relative="1" as="geometry">
            <mxPoint x="480" y="1590" as="sourcePoint" />
            <mxPoint x="530" y="1540" as="targetPoint" />
            <Array as="points">
              <mxPoint x="500" y="1595" />
              <mxPoint x="500" y="1720" />
            </Array>
          </mxGeometry>
        </mxCell>
        <mxCell id="8OBh5h36qt_DKstB2xnP-113" value="Добавить документ?" style="shape=hexagon;perimeter=hexagonPerimeter2;whiteSpace=wrap;html=1;fixedSize=1;" vertex="1" parent="1">
          <mxGeometry x="330" y="1760" width="140" height="30" as="geometry" />
        </mxCell>
        <mxCell id="8OBh5h36qt_DKstB2xnP-114" value="" style="endArrow=classic;html=1;rounded=0;exitX=0.5;exitY=1;exitDx=0;exitDy=0;entryX=0.5;entryY=0;entryDx=0;entryDy=0;" edge="1" parent="1" source="8OBh5h36qt_DKstB2xnP-110" target="8OBh5h36qt_DKstB2xnP-113">
          <mxGeometry width="50" height="50" relative="1" as="geometry">
            <mxPoint x="380" y="1890" as="sourcePoint" />
            <mxPoint x="430" y="1840" as="targetPoint" />
          </mxGeometry>
        </mxCell>
        <mxCell id="8OBh5h36qt_DKstB2xnP-115" value="Загрузить документ" style="rounded=1;whiteSpace=wrap;html=1;" vertex="1" parent="1">
          <mxGeometry x="331.25" y="1820" width="137.5" height="30" as="geometry" />
        </mxCell>
        <mxCell id="8OBh5h36qt_DKstB2xnP-116" value="" style="endArrow=classic;html=1;rounded=0;exitX=0.5;exitY=1;exitDx=0;exitDy=0;" edge="1" parent="1" source="8OBh5h36qt_DKstB2xnP-113" target="8OBh5h36qt_DKstB2xnP-115">
          <mxGeometry width="50" height="50" relative="1" as="geometry">
            <mxPoint x="390" y="1920" as="sourcePoint" />
            <mxPoint x="440" y="1870" as="targetPoint" />
          </mxGeometry>
        </mxCell>
        <mxCell id="8OBh5h36qt_DKstB2xnP-120" value="Да" style="edgeLabel;html=1;align=center;verticalAlign=middle;resizable=0;points=[];" vertex="1" connectable="0" parent="8OBh5h36qt_DKstB2xnP-116">
          <mxGeometry x="-0.3389" relative="1" as="geometry">
            <mxPoint as="offset" />
          </mxGeometry>
        </mxCell>
        <mxCell id="8OBh5h36qt_DKstB2xnP-117" value="" style="rhombus;whiteSpace=wrap;html=1;" vertex="1" parent="1">
          <mxGeometry x="390" y="1880" width="20" height="20" as="geometry" />
        </mxCell>
        <mxCell id="8OBh5h36qt_DKstB2xnP-118" value="" style="endArrow=classic;html=1;rounded=0;exitX=1;exitY=0.5;exitDx=0;exitDy=0;entryX=1;entryY=0.5;entryDx=0;entryDy=0;" edge="1" parent="1" source="8OBh5h36qt_DKstB2xnP-113" target="8OBh5h36qt_DKstB2xnP-117">
          <mxGeometry width="50" height="50" relative="1" as="geometry">
            <mxPoint x="450" y="1920" as="sourcePoint" />
            <mxPoint x="500" y="1870" as="targetPoint" />
            <Array as="points">
              <mxPoint x="500" y="1775" />
              <mxPoint x="500" y="1890" />
            </Array>
          </mxGeometry>
        </mxCell>
        <mxCell id="8OBh5h36qt_DKstB2xnP-119" value="Нет" style="edgeLabel;html=1;align=center;verticalAlign=bottom;resizable=0;points=[];labelPosition=center;verticalLabelPosition=top;" vertex="1" connectable="0" parent="8OBh5h36qt_DKstB2xnP-118">
          <mxGeometry x="-0.9092" y="1" relative="1" as="geometry">
            <mxPoint as="offset" />
          </mxGeometry>
        </mxCell>
        <mxCell id="8OBh5h36qt_DKstB2xnP-121" value="" style="endArrow=classic;html=1;rounded=0;exitX=0.5;exitY=1;exitDx=0;exitDy=0;entryX=0.5;entryY=0;entryDx=0;entryDy=0;" edge="1" parent="1" source="8OBh5h36qt_DKstB2xnP-115" target="8OBh5h36qt_DKstB2xnP-117">
          <mxGeometry width="50" height="50" relative="1" as="geometry">
            <mxPoint x="320" y="1920" as="sourcePoint" />
            <mxPoint x="370" y="1870" as="targetPoint" />
          </mxGeometry>
        </mxCell>
        <mxCell id="8OBh5h36qt_DKstB2xnP-122" value="Удалить документы?" style="shape=hexagon;perimeter=hexagonPerimeter2;whiteSpace=wrap;html=1;fixedSize=1;" vertex="1" parent="1">
          <mxGeometry x="330" y="1930" width="140" height="30" as="geometry" />
        </mxCell>
        <mxCell id="8OBh5h36qt_DKstB2xnP-123" value="Удалить выбранные документы" style="rounded=1;whiteSpace=wrap;html=1;" vertex="1" parent="1">
          <mxGeometry x="331.25" y="1990" width="137.5" height="30" as="geometry" />
        </mxCell>
        <mxCell id="8OBh5h36qt_DKstB2xnP-124" value="" style="rhombus;whiteSpace=wrap;html=1;" vertex="1" parent="1">
          <mxGeometry x="390" y="2050" width="20" height="20" as="geometry" />
        </mxCell>
        <mxCell id="8OBh5h36qt_DKstB2xnP-125" value="" style="endArrow=classic;html=1;rounded=0;exitX=0.5;exitY=1;exitDx=0;exitDy=0;entryX=0.5;entryY=0;entryDx=0;entryDy=0;" edge="1" parent="1" source="8OBh5h36qt_DKstB2xnP-122" target="8OBh5h36qt_DKstB2xnP-123">
          <mxGeometry width="50" height="50" relative="1" as="geometry">
            <mxPoint x="280" y="1980" as="sourcePoint" />
            <mxPoint x="330" y="1930" as="targetPoint" />
          </mxGeometry>
        </mxCell>
        <mxCell id="8OBh5h36qt_DKstB2xnP-127" value="Да" style="edgeLabel;html=1;align=center;verticalAlign=middle;resizable=0;points=[];" vertex="1" connectable="0" parent="8OBh5h36qt_DKstB2xnP-125">
          <mxGeometry x="-0.1673" y="1" relative="1" as="geometry">
            <mxPoint x="-1" y="-3" as="offset" />
          </mxGeometry>
        </mxCell>
        <mxCell id="8OBh5h36qt_DKstB2xnP-128" value="" style="endArrow=classic;html=1;rounded=0;exitX=1;exitY=0.5;exitDx=0;exitDy=0;entryX=1;entryY=0.5;entryDx=0;entryDy=0;" edge="1" parent="1" source="8OBh5h36qt_DKstB2xnP-122" target="8OBh5h36qt_DKstB2xnP-124">
          <mxGeometry width="50" height="50" relative="1" as="geometry">
            <mxPoint x="470" y="1950" as="sourcePoint" />
            <mxPoint x="520" y="1900" as="targetPoint" />
            <Array as="points">
              <mxPoint x="500" y="1945" />
              <mxPoint x="500" y="2060" />
            </Array>
          </mxGeometry>
        </mxCell>
        <mxCell id="8OBh5h36qt_DKstB2xnP-129" value="Нет" style="edgeLabel;html=1;align=center;verticalAlign=bottom;resizable=0;points=[];labelPosition=center;verticalLabelPosition=top;" vertex="1" connectable="0" parent="8OBh5h36qt_DKstB2xnP-128">
          <mxGeometry x="-0.8938" y="1" relative="1" as="geometry">
            <mxPoint y="1" as="offset" />
          </mxGeometry>
        </mxCell>
        <mxCell id="8OBh5h36qt_DKstB2xnP-130" value="" style="endArrow=classic;html=1;rounded=0;exitX=0.5;exitY=1;exitDx=0;exitDy=0;entryX=0.5;entryY=0;entryDx=0;entryDy=0;" edge="1" parent="1" source="8OBh5h36qt_DKstB2xnP-123" target="8OBh5h36qt_DKstB2xnP-124">
          <mxGeometry width="50" height="50" relative="1" as="geometry">
            <mxPoint x="220" y="1990" as="sourcePoint" />
            <mxPoint x="270" y="1940" as="targetPoint" />
          </mxGeometry>
        </mxCell>
        <mxCell id="8OBh5h36qt_DKstB2xnP-133" value="" style="endArrow=classic;html=1;rounded=0;exitX=0.5;exitY=1;exitDx=0;exitDy=0;entryX=0.5;entryY=0;entryDx=0;entryDy=0;" edge="1" parent="1" source="8OBh5h36qt_DKstB2xnP-117" target="8OBh5h36qt_DKstB2xnP-122">
          <mxGeometry width="50" height="50" relative="1" as="geometry">
            <mxPoint x="280" y="1930" as="sourcePoint" />
            <mxPoint x="330" y="1880" as="targetPoint" />
          </mxGeometry>
        </mxCell>
        <mxCell id="8OBh5h36qt_DKstB2xnP-134" value="Скачать документы?" style="shape=hexagon;perimeter=hexagonPerimeter2;whiteSpace=wrap;html=1;fixedSize=1;" vertex="1" parent="1">
          <mxGeometry x="331.25" y="2100" width="140" height="30" as="geometry" />
        </mxCell>
        <mxCell id="8OBh5h36qt_DKstB2xnP-135" value="Выгрузить документ" style="rounded=1;whiteSpace=wrap;html=1;" vertex="1" parent="1">
          <mxGeometry x="331.25" y="2160" width="137.5" height="30" as="geometry" />
        </mxCell>
        <mxCell id="8OBh5h36qt_DKstB2xnP-136" value="" style="endArrow=classic;html=1;rounded=0;exitX=0.5;exitY=1;exitDx=0;exitDy=0;entryX=0.491;entryY=-0.024;entryDx=0;entryDy=0;entryPerimeter=0;" edge="1" parent="1" source="8OBh5h36qt_DKstB2xnP-124" target="8OBh5h36qt_DKstB2xnP-134">
          <mxGeometry width="50" height="50" relative="1" as="geometry">
            <mxPoint x="310" y="2110" as="sourcePoint" />
            <mxPoint x="360" y="2060" as="targetPoint" />
          </mxGeometry>
        </mxCell>
        <mxCell id="8OBh5h36qt_DKstB2xnP-137" value="" style="endArrow=classic;html=1;rounded=0;exitX=0.492;exitY=0.994;exitDx=0;exitDy=0;entryX=0.501;entryY=-0.017;entryDx=0;entryDy=0;entryPerimeter=0;exitPerimeter=0;" edge="1" parent="1" source="8OBh5h36qt_DKstB2xnP-134" target="8OBh5h36qt_DKstB2xnP-135">
          <mxGeometry width="50" height="50" relative="1" as="geometry">
            <mxPoint x="320" y="2180" as="sourcePoint" />
            <mxPoint x="370" y="2130" as="targetPoint" />
          </mxGeometry>
        </mxCell>
        <mxCell id="8OBh5h36qt_DKstB2xnP-138" value="Да" style="edgeLabel;html=1;align=center;verticalAlign=middle;resizable=0;points=[];" vertex="1" connectable="0" parent="8OBh5h36qt_DKstB2xnP-137">
          <mxGeometry x="-0.2127" y="-1" relative="1" as="geometry">
            <mxPoint as="offset" />
          </mxGeometry>
        </mxCell>
        <mxCell id="8OBh5h36qt_DKstB2xnP-139" value="" style="rhombus;whiteSpace=wrap;html=1;" vertex="1" parent="1">
          <mxGeometry x="390" y="2220" width="20" height="20" as="geometry" />
        </mxCell>
        <mxCell id="8OBh5h36qt_DKstB2xnP-140" value="" style="endArrow=classic;html=1;rounded=0;exitX=1;exitY=0.5;exitDx=0;exitDy=0;entryX=1;entryY=0.5;entryDx=0;entryDy=0;" edge="1" parent="1" source="8OBh5h36qt_DKstB2xnP-134" target="8OBh5h36qt_DKstB2xnP-139">
          <mxGeometry width="50" height="50" relative="1" as="geometry">
            <mxPoint x="260" y="2200" as="sourcePoint" />
            <mxPoint x="310" y="2150" as="targetPoint" />
            <Array as="points">
              <mxPoint x="500" y="2115" />
              <mxPoint x="500" y="2230" />
            </Array>
          </mxGeometry>
        </mxCell>
        <mxCell id="8OBh5h36qt_DKstB2xnP-141" value="Нет" style="edgeLabel;html=1;align=center;verticalAlign=bottom;resizable=0;points=[];labelPosition=center;verticalLabelPosition=top;" vertex="1" connectable="0" parent="8OBh5h36qt_DKstB2xnP-140">
          <mxGeometry x="-0.8734" y="1" relative="1" as="geometry">
            <mxPoint as="offset" />
          </mxGeometry>
        </mxCell>
        <mxCell id="8OBh5h36qt_DKstB2xnP-142" value="" style="endArrow=classic;html=1;rounded=0;exitX=0.5;exitY=1.023;exitDx=0;exitDy=0;exitPerimeter=0;entryX=0.5;entryY=0;entryDx=0;entryDy=0;" edge="1" parent="1" source="8OBh5h36qt_DKstB2xnP-135" target="8OBh5h36qt_DKstB2xnP-139">
          <mxGeometry width="50" height="50" relative="1" as="geometry">
            <mxPoint x="260" y="2200" as="sourcePoint" />
            <mxPoint x="310" y="2150" as="targetPoint" />
          </mxGeometry>
        </mxCell>
        <mxCell id="8OBh5h36qt_DKstB2xnP-143" value="Загрузить документ" style="rounded=1;whiteSpace=wrap;html=1;" vertex="1" parent="1">
          <mxGeometry x="670" y="810" width="100" height="30" as="geometry" />
        </mxCell>
        <mxCell id="8OBh5h36qt_DKstB2xnP-144" value="" style="endArrow=classic;html=1;rounded=0;exitX=1;exitY=0.5;exitDx=0;exitDy=0;entryX=0.5;entryY=0;entryDx=0;entryDy=0;" edge="1" parent="1" source="8OBh5h36qt_DKstB2xnP-49" target="8OBh5h36qt_DKstB2xnP-143">
          <mxGeometry width="50" height="50" relative="1" as="geometry">
            <mxPoint x="450" y="1040" as="sourcePoint" />
            <mxPoint x="500" y="990" as="targetPoint" />
            <Array as="points">
              <mxPoint x="720" y="725" />
            </Array>
          </mxGeometry>
        </mxCell>
        <mxCell id="8OBh5h36qt_DKstB2xnP-145" value="Иммитационное" style="edgeLabel;html=1;align=center;verticalAlign=bottom;resizable=0;points=[];labelPosition=center;verticalLabelPosition=top;" vertex="1" connectable="0" parent="8OBh5h36qt_DKstB2xnP-144">
          <mxGeometry x="-0.6236" relative="1" as="geometry">
            <mxPoint x="47" as="offset" />
          </mxGeometry>
        </mxCell>
        <mxCell id="8OBh5h36qt_DKstB2xnP-146" value="" style="endArrow=classic;html=1;rounded=0;exitX=0.5;exitY=1;exitDx=0;exitDy=0;entryX=1;entryY=0.5;entryDx=0;entryDy=0;" edge="1" parent="1" source="8OBh5h36qt_DKstB2xnP-143" target="8OBh5h36qt_DKstB2xnP-103">
          <mxGeometry width="50" height="50" relative="1" as="geometry">
            <mxPoint x="450" y="1040" as="sourcePoint" />
            <mxPoint x="500" y="990" as="targetPoint" />
            <Array as="points">
              <mxPoint x="720" y="850" />
              <mxPoint x="480" y="850" />
              <mxPoint x="480" y="1460" />
            </Array>
          </mxGeometry>
        </mxCell>
        <mxCell id="8OBh5h36qt_DKstB2xnP-147" value="" style="endArrow=classic;html=1;rounded=0;entryX=0.5;entryY=0;entryDx=0;entryDy=0;" edge="1" parent="1" target="8OBh5h36qt_DKstB2xnP-148">
          <mxGeometry width="50" height="50" relative="1" as="geometry">
            <mxPoint x="400" y="1670" as="sourcePoint" />
            <mxPoint x="580" y="1640" as="targetPoint" />
            <Array as="points">
              <mxPoint x="400" y="1690" />
              <mxPoint x="550" y="1690" />
              <mxPoint x="550" y="860" />
              <mxPoint x="720" y="860" />
            </Array>
          </mxGeometry>
        </mxCell>
        <mxCell id="8OBh5h36qt_DKstB2xnP-148" value="Запустить построение модели" style="rounded=1;whiteSpace=wrap;html=1;" vertex="1" parent="1">
          <mxGeometry x="660" y="870" width="120" height="30" as="geometry" />
        </mxCell>
        <mxCell id="8OBh5h36qt_DKstB2xnP-150" value="Запустить симуляцию" style="rounded=1;whiteSpace=wrap;html=1;" vertex="1" parent="1">
          <mxGeometry x="670" y="930" width="100" height="30" as="geometry" />
        </mxCell>
        <mxCell id="8OBh5h36qt_DKstB2xnP-151" value="Запустить симуляцию" style="rounded=1;whiteSpace=wrap;html=1;" vertex="1" parent="1">
          <mxGeometry x="670" y="930" width="100" height="30" as="geometry" />
        </mxCell>
        <mxCell id="8OBh5h36qt_DKstB2xnP-152" value="Получить результаты" style="rounded=1;whiteSpace=wrap;html=1;" vertex="1" parent="1">
          <mxGeometry x="670" y="990" width="100" height="30" as="geometry" />
        </mxCell>
        <mxCell id="8OBh5h36qt_DKstB2xnP-153" value="Нужны улучшения?" style="shape=hexagon;perimeter=hexagonPerimeter2;whiteSpace=wrap;html=1;fixedSize=1;" vertex="1" parent="1">
          <mxGeometry x="655" y="1050" width="130" height="30" as="geometry" />
        </mxCell>
        <mxCell id="8OBh5h36qt_DKstB2xnP-154" value="Получить AI - рекомендации" style="rounded=1;whiteSpace=wrap;html=1;" vertex="1" parent="1">
          <mxGeometry x="670" y="1110" width="100" height="30" as="geometry" />
        </mxCell>
        <mxCell id="8OBh5h36qt_DKstB2xnP-156" value="" style="rhombus;whiteSpace=wrap;html=1;" vertex="1" parent="1">
          <mxGeometry x="710" y="1170" width="20" height="20" as="geometry" />
        </mxCell>
        <mxCell id="8OBh5h36qt_DKstB2xnP-157" value="Экспорт отчета" style="rounded=1;whiteSpace=wrap;html=1;" vertex="1" parent="1">
          <mxGeometry x="670" y="1215" width="100" height="30" as="geometry" />
        </mxCell>
        <mxCell id="8OBh5h36qt_DKstB2xnP-158" value="" style="endArrow=classic;html=1;rounded=0;exitX=0.5;exitY=1;exitDx=0;exitDy=0;entryX=0.5;entryY=0;entryDx=0;entryDy=0;" edge="1" parent="1" source="8OBh5h36qt_DKstB2xnP-148" target="8OBh5h36qt_DKstB2xnP-151">
          <mxGeometry width="50" height="50" relative="1" as="geometry">
            <mxPoint x="580" y="970" as="sourcePoint" />
            <mxPoint x="630" y="920" as="targetPoint" />
          </mxGeometry>
        </mxCell>
        <mxCell id="8OBh5h36qt_DKstB2xnP-159" value="" style="endArrow=classic;html=1;rounded=0;exitX=0.5;exitY=1;exitDx=0;exitDy=0;entryX=0.5;entryY=0;entryDx=0;entryDy=0;" edge="1" parent="1" source="8OBh5h36qt_DKstB2xnP-151" target="8OBh5h36qt_DKstB2xnP-152">
          <mxGeometry width="50" height="50" relative="1" as="geometry">
            <mxPoint x="590" y="980" as="sourcePoint" />
            <mxPoint x="640" y="930" as="targetPoint" />
          </mxGeometry>
        </mxCell>
        <mxCell id="8OBh5h36qt_DKstB2xnP-160" value="" style="endArrow=classic;html=1;rounded=0;exitX=0.5;exitY=1;exitDx=0;exitDy=0;entryX=0.5;entryY=0;entryDx=0;entryDy=0;" edge="1" parent="1" source="8OBh5h36qt_DKstB2xnP-152" target="8OBh5h36qt_DKstB2xnP-153">
          <mxGeometry width="50" height="50" relative="1" as="geometry">
            <mxPoint x="230" y="1170" as="sourcePoint" />
            <mxPoint x="280" y="1120" as="targetPoint" />
            <Array as="points" />
          </mxGeometry>
        </mxCell>
        <mxCell id="8OBh5h36qt_DKstB2xnP-161" value="" style="endArrow=classic;html=1;rounded=0;exitX=0.5;exitY=1;exitDx=0;exitDy=0;entryX=0.5;entryY=0;entryDx=0;entryDy=0;" edge="1" parent="1" source="8OBh5h36qt_DKstB2xnP-153" target="8OBh5h36qt_DKstB2xnP-154">
          <mxGeometry width="50" height="50" relative="1" as="geometry">
            <mxPoint x="230" y="1170" as="sourcePoint" />
            <mxPoint x="280" y="1120" as="targetPoint" />
          </mxGeometry>
        </mxCell>
        <mxCell id="8OBh5h36qt_DKstB2xnP-162" value="Да" style="edgeLabel;html=1;align=center;verticalAlign=middle;resizable=0;points=[];" vertex="1" connectable="0" parent="8OBh5h36qt_DKstB2xnP-161">
          <mxGeometry x="-0.1439" relative="1" as="geometry">
            <mxPoint as="offset" />
          </mxGeometry>
        </mxCell>
        <mxCell id="8OBh5h36qt_DKstB2xnP-163" value="" style="endArrow=classic;html=1;rounded=0;exitX=1;exitY=0.5;exitDx=0;exitDy=0;entryX=1;entryY=0.5;entryDx=0;entryDy=0;" edge="1" parent="1" source="8OBh5h36qt_DKstB2xnP-153" target="8OBh5h36qt_DKstB2xnP-156">
          <mxGeometry width="50" height="50" relative="1" as="geometry">
            <mxPoint x="430" y="1160" as="sourcePoint" />
            <mxPoint x="480" y="1110" as="targetPoint" />
            <Array as="points">
              <mxPoint x="820" y="1065" />
              <mxPoint x="820" y="1180" />
            </Array>
          </mxGeometry>
        </mxCell>
        <mxCell id="8OBh5h36qt_DKstB2xnP-165" value="Нет" style="edgeLabel;html=1;align=center;verticalAlign=bottom;resizable=0;points=[];labelPosition=center;verticalLabelPosition=top;" vertex="1" connectable="0" parent="8OBh5h36qt_DKstB2xnP-163">
          <mxGeometry x="-0.8556" y="1" relative="1" as="geometry">
            <mxPoint x="-3" y="1" as="offset" />
          </mxGeometry>
        </mxCell>
        <mxCell id="8OBh5h36qt_DKstB2xnP-166" value="" style="endArrow=classic;html=1;rounded=0;exitX=0.5;exitY=1;exitDx=0;exitDy=0;entryX=0.001;entryY=0.675;entryDx=0;entryDy=0;entryPerimeter=0;" edge="1" parent="1" source="8OBh5h36qt_DKstB2xnP-154" target="8OBh5h36qt_DKstB2xnP-151">
          <mxGeometry width="50" height="50" relative="1" as="geometry">
            <mxPoint x="570" y="1060" as="sourcePoint" />
            <mxPoint x="620" y="1010" as="targetPoint" />
            <Array as="points">
              <mxPoint x="720" y="1160" />
              <mxPoint x="620" y="1160" />
              <mxPoint x="620" y="950" />
            </Array>
          </mxGeometry>
        </mxCell>
        <mxCell id="8OBh5h36qt_DKstB2xnP-167" value="" style="endArrow=classic;html=1;rounded=0;exitX=0.5;exitY=1;exitDx=0;exitDy=0;entryX=0.5;entryY=0;entryDx=0;entryDy=0;" edge="1" parent="1" source="8OBh5h36qt_DKstB2xnP-156" target="8OBh5h36qt_DKstB2xnP-157">
          <mxGeometry width="50" height="50" relative="1" as="geometry">
            <mxPoint x="600" y="1150" as="sourcePoint" />
            <mxPoint x="650" y="1100" as="targetPoint" />
          </mxGeometry>
        </mxCell>
        <mxCell id="8OBh5h36qt_DKstB2xnP-169" value="Управление отчетами" style="shape=umlFrame;whiteSpace=wrap;html=1;pointerEvents=0;width=90;height=30;" vertex="1" parent="1">
          <mxGeometry x="590" y="1600" width="330" height="330" as="geometry" />
        </mxCell>
        <mxCell id="8OBh5h36qt_DKstB2xnP-170" value="Просмотреть отчеты" style="rounded=1;whiteSpace=wrap;html=1;" vertex="1" parent="1">
          <mxGeometry x="680" y="1640" width="137.5" height="30" as="geometry" />
        </mxCell>
        <mxCell id="8OBh5h36qt_DKstB2xnP-171" value="Действия?" style="shape=hexagon;perimeter=hexagonPerimeter2;whiteSpace=wrap;html=1;fixedSize=1;" vertex="1" parent="1">
          <mxGeometry x="330" y="550" width="140" height="30" as="geometry" />
        </mxCell>
        <mxCell id="8OBh5h36qt_DKstB2xnP-172" value="" style="endArrow=classic;html=1;rounded=0;entryX=0.5;entryY=0;entryDx=0;entryDy=0;entryPerimeter=0;" edge="1" parent="1" target="8OBh5h36qt_DKstB2xnP-49">
          <mxGeometry width="50" height="50" relative="1" as="geometry">
            <mxPoint x="400" y="580" as="sourcePoint" />
            <mxPoint x="80" y="470" as="targetPoint" />
          </mxGeometry>
        </mxCell>
        <mxCell id="8OBh5h36qt_DKstB2xnP-174" value="" style="endArrow=classic;html=1;rounded=0;exitX=1;exitY=0.5;exitDx=0;exitDy=0;entryX=0.5;entryY=0;entryDx=0;entryDy=0;" edge="1" parent="1" source="8OBh5h36qt_DKstB2xnP-171">
          <mxGeometry width="50" height="50" relative="1" as="geometry">
            <mxPoint x="605" y="580" as="sourcePoint" />
            <mxPoint x="401.25" y="1289.9999999999995" as="targetPoint" />
            <Array as="points">
              <mxPoint x="500" y="565" />
              <mxPoint x="500" y="1240" />
              <mxPoint x="401" y="1240" />
            </Array>
          </mxGeometry>
        </mxCell>
        <mxCell id="8OBh5h36qt_DKstB2xnP-175" value="Работа с документами" style="rounded=1;whiteSpace=wrap;html=1;" vertex="1" parent="1">
          <mxGeometry x="350" y="1290" width="100" height="30" as="geometry" />
        </mxCell>
        <mxCell id="8OBh5h36qt_DKstB2xnP-177" value="Какие документы?" style="shape=hexagon;perimeter=hexagonPerimeter2;whiteSpace=wrap;html=1;fixedSize=1;" vertex="1" parent="1">
          <mxGeometry x="330" y="1350" width="140" height="30" as="geometry" />
        </mxCell>
        <mxCell id="8OBh5h36qt_DKstB2xnP-178" value="" style="endArrow=classic;html=1;rounded=0;exitX=0.5;exitY=1;exitDx=0;exitDy=0;entryX=0.5;entryY=0;entryDx=0;entryDy=0;" edge="1" parent="1" source="8OBh5h36qt_DKstB2xnP-177" target="8OBh5h36qt_DKstB2xnP-103">
          <mxGeometry width="50" height="50" relative="1" as="geometry">
            <mxPoint x="250" y="1400" as="sourcePoint" />
            <mxPoint x="300" y="1350" as="targetPoint" />
          </mxGeometry>
        </mxCell>
        <mxCell id="8OBh5h36qt_DKstB2xnP-180" value="" style="endArrow=classic;html=1;rounded=0;exitX=1;exitY=0.5;exitDx=0;exitDy=0;entryX=0.5;entryY=0;entryDx=0;entryDy=0;" edge="1" parent="1" source="8OBh5h36qt_DKstB2xnP-177" target="8OBh5h36qt_DKstB2xnP-187">
          <mxGeometry width="50" height="50" relative="1" as="geometry">
            <mxPoint x="240" y="1560" as="sourcePoint" />
            <mxPoint x="749" y="1500" as="targetPoint" />
            <Array as="points">
              <mxPoint x="749" y="1365" />
            </Array>
          </mxGeometry>
        </mxCell>
        <mxCell id="8OBh5h36qt_DKstB2xnP-181" value="" style="endArrow=classic;html=1;rounded=0;exitX=0.5;exitY=1;exitDx=0;exitDy=0;entryX=0.5;entryY=0;entryDx=0;entryDy=0;" edge="1" parent="1" source="8OBh5h36qt_DKstB2xnP-35" target="8OBh5h36qt_DKstB2xnP-171">
          <mxGeometry width="50" height="50" relative="1" as="geometry">
            <mxPoint x="130" y="420" as="sourcePoint" />
            <mxPoint x="180" y="370" as="targetPoint" />
          </mxGeometry>
        </mxCell>
        <mxCell id="8OBh5h36qt_DKstB2xnP-182" value="" style="endArrow=classic;html=1;rounded=0;exitX=0.5;exitY=1;exitDx=0;exitDy=0;entryX=0.5;entryY=0;entryDx=0;entryDy=0;" edge="1" parent="1" source="8OBh5h36qt_DKstB2xnP-175" target="8OBh5h36qt_DKstB2xnP-177">
          <mxGeometry width="50" height="50" relative="1" as="geometry">
            <mxPoint x="290" y="1190" as="sourcePoint" />
            <mxPoint x="340" y="1140" as="targetPoint" />
          </mxGeometry>
        </mxCell>
        <mxCell id="8OBh5h36qt_DKstB2xnP-183" value="Действие с отчетом?" style="shape=hexagon;perimeter=hexagonPerimeter2;whiteSpace=wrap;html=1;fixedSize=1;" vertex="1" parent="1">
          <mxGeometry x="678.75" y="1700" width="140" height="30" as="geometry" />
        </mxCell>
        <mxCell id="8OBh5h36qt_DKstB2xnP-184" value="Скачать?" style="shape=hexagon;perimeter=hexagonPerimeter2;whiteSpace=wrap;html=1;fixedSize=1;" vertex="1" parent="1">
          <mxGeometry x="610" y="1754" width="90" height="30" as="geometry" />
        </mxCell>
        <mxCell id="8OBh5h36qt_DKstB2xnP-185" value="Удалить?" style="shape=hexagon;perimeter=hexagonPerimeter2;whiteSpace=wrap;html=1;fixedSize=1;" vertex="1" parent="1">
          <mxGeometry x="800" y="1760" width="90" height="30" as="geometry" />
        </mxCell>
        <mxCell id="8OBh5h36qt_DKstB2xnP-186" value="Загрузить отчет" style="rounded=1;whiteSpace=wrap;html=1;" vertex="1" parent="1">
          <mxGeometry x="596.25" y="1820" width="117.5" height="30" as="geometry" />
        </mxCell>
        <mxCell id="8OBh5h36qt_DKstB2xnP-187" value="" style="rhombus;whiteSpace=wrap;html=1;" vertex="1" parent="1">
          <mxGeometry x="738.75" y="1510" width="20" height="20" as="geometry" />
        </mxCell>
        <mxCell id="8OBh5h36qt_DKstB2xnP-188" value="" style="endArrow=classic;html=1;rounded=0;entryX=1;entryY=0.5;entryDx=0;entryDy=0;exitX=0.5;exitY=1;exitDx=0;exitDy=0;" edge="1" parent="1" source="8OBh5h36qt_DKstB2xnP-201" target="8OBh5h36qt_DKstB2xnP-187">
          <mxGeometry width="50" height="50" relative="1" as="geometry">
            <mxPoint x="720" y="1300" as="sourcePoint" />
            <mxPoint x="620" y="1270" as="targetPoint" />
            <Array as="points">
              <mxPoint x="720" y="1320" />
              <mxPoint x="800" y="1320" />
              <mxPoint x="800" y="1520" />
            </Array>
          </mxGeometry>
        </mxCell>
        <mxCell id="8OBh5h36qt_DKstB2xnP-189" value="" style="endArrow=classic;html=1;rounded=0;entryX=0;entryY=0.5;entryDx=0;entryDy=0;exitX=1;exitY=0.5;exitDx=0;exitDy=0;" edge="1" parent="1" source="8OBh5h36qt_DKstB2xnP-200" target="8OBh5h36qt_DKstB2xnP-187">
          <mxGeometry width="50" height="50" relative="1" as="geometry">
            <mxPoint x="80" y="1780" as="sourcePoint" />
            <mxPoint x="90" y="1810" as="targetPoint" />
            <Array as="points">
              <mxPoint x="120" y="1740" />
              <mxPoint x="120" y="2290" />
              <mxPoint x="560" y="2290" />
              <mxPoint x="560" y="1520" />
            </Array>
          </mxGeometry>
        </mxCell>
        <mxCell id="8OBh5h36qt_DKstB2xnP-190" value="" style="endArrow=classic;html=1;rounded=0;exitX=0.5;exitY=1;exitDx=0;exitDy=0;entryX=0.5;entryY=0;entryDx=0;entryDy=0;" edge="1" parent="1" source="8OBh5h36qt_DKstB2xnP-187" target="8OBh5h36qt_DKstB2xnP-170">
          <mxGeometry width="50" height="50" relative="1" as="geometry">
            <mxPoint x="810" y="1570" as="sourcePoint" />
            <mxPoint x="860" y="1520" as="targetPoint" />
          </mxGeometry>
        </mxCell>
        <mxCell id="8OBh5h36qt_DKstB2xnP-191" value="Удалить отчет" style="rounded=1;whiteSpace=wrap;html=1;" vertex="1" parent="1">
          <mxGeometry x="786.25" y="1820" width="117.5" height="30" as="geometry" />
        </mxCell>
        <mxCell id="8OBh5h36qt_DKstB2xnP-192" value="" style="rhombus;whiteSpace=wrap;html=1;" vertex="1" parent="1">
          <mxGeometry x="750" y="1880" width="20" height="20" as="geometry" />
        </mxCell>
        <mxCell id="8OBh5h36qt_DKstB2xnP-193" value="" style="endArrow=classic;html=1;rounded=0;exitX=0;exitY=0.5;exitDx=0;exitDy=0;entryX=0.5;entryY=0;entryDx=0;entryDy=0;" edge="1" parent="1" source="8OBh5h36qt_DKstB2xnP-183" target="8OBh5h36qt_DKstB2xnP-184">
          <mxGeometry width="50" height="50" relative="1" as="geometry">
            <mxPoint x="570" y="1880" as="sourcePoint" />
            <mxPoint x="620" y="1830" as="targetPoint" />
            <Array as="points">
              <mxPoint x="655" y="1715" />
            </Array>
          </mxGeometry>
        </mxCell>
        <mxCell id="8OBh5h36qt_DKstB2xnP-194" value="" style="endArrow=classic;html=1;rounded=0;exitX=1;exitY=0.5;exitDx=0;exitDy=0;entryX=0.5;entryY=0;entryDx=0;entryDy=0;" edge="1" parent="1" source="8OBh5h36qt_DKstB2xnP-183" target="8OBh5h36qt_DKstB2xnP-185">
          <mxGeometry width="50" height="50" relative="1" as="geometry">
            <mxPoint x="600" y="1850" as="sourcePoint" />
            <mxPoint x="650" y="1800" as="targetPoint" />
            <Array as="points">
              <mxPoint x="845" y="1715" />
            </Array>
          </mxGeometry>
        </mxCell>
        <mxCell id="8OBh5h36qt_DKstB2xnP-195" value="" style="endArrow=classic;html=1;rounded=0;exitX=0.5;exitY=1;exitDx=0;exitDy=0;entryX=0.5;entryY=0;entryDx=0;entryDy=0;" edge="1" parent="1" source="8OBh5h36qt_DKstB2xnP-170" target="8OBh5h36qt_DKstB2xnP-183">
          <mxGeometry width="50" height="50" relative="1" as="geometry">
            <mxPoint x="600" y="1850" as="sourcePoint" />
            <mxPoint x="650" y="1800" as="targetPoint" />
          </mxGeometry>
        </mxCell>
        <mxCell id="8OBh5h36qt_DKstB2xnP-196" value="" style="endArrow=classic;html=1;rounded=0;exitX=0.5;exitY=1;exitDx=0;exitDy=0;entryX=0.5;entryY=0;entryDx=0;entryDy=0;" edge="1" parent="1" source="8OBh5h36qt_DKstB2xnP-184" target="8OBh5h36qt_DKstB2xnP-186">
          <mxGeometry width="50" height="50" relative="1" as="geometry">
            <mxPoint x="600" y="1850" as="sourcePoint" />
            <mxPoint x="650" y="1800" as="targetPoint" />
          </mxGeometry>
        </mxCell>
        <mxCell id="8OBh5h36qt_DKstB2xnP-197" value="" style="endArrow=classic;html=1;rounded=0;exitX=0.5;exitY=1;exitDx=0;exitDy=0;entryX=0.5;entryY=0;entryDx=0;entryDy=0;" edge="1" parent="1" source="8OBh5h36qt_DKstB2xnP-185" target="8OBh5h36qt_DKstB2xnP-191">
          <mxGeometry width="50" height="50" relative="1" as="geometry">
            <mxPoint x="600" y="1850" as="sourcePoint" />
            <mxPoint x="650" y="1800" as="targetPoint" />
          </mxGeometry>
        </mxCell>
        <mxCell id="8OBh5h36qt_DKstB2xnP-198" value="" style="endArrow=classic;html=1;rounded=0;exitX=0.5;exitY=1;exitDx=0;exitDy=0;entryX=0;entryY=0.5;entryDx=0;entryDy=0;" edge="1" parent="1" source="8OBh5h36qt_DKstB2xnP-186" target="8OBh5h36qt_DKstB2xnP-192">
          <mxGeometry width="50" height="50" relative="1" as="geometry">
            <mxPoint x="600" y="1850" as="sourcePoint" />
            <mxPoint x="650" y="1800" as="targetPoint" />
            <Array as="points">
              <mxPoint x="655" y="1890" />
            </Array>
          </mxGeometry>
        </mxCell>
        <mxCell id="8OBh5h36qt_DKstB2xnP-199" value="" style="endArrow=classic;html=1;rounded=0;exitX=0.5;exitY=1;exitDx=0;exitDy=0;entryX=1;entryY=0.5;entryDx=0;entryDy=0;" edge="1" parent="1" source="8OBh5h36qt_DKstB2xnP-191" target="8OBh5h36qt_DKstB2xnP-192">
          <mxGeometry width="50" height="50" relative="1" as="geometry">
            <mxPoint x="600" y="1850" as="sourcePoint" />
            <mxPoint x="650" y="1800" as="targetPoint" />
            <Array as="points">
              <mxPoint x="845" y="1890" />
            </Array>
          </mxGeometry>
        </mxCell>
        <mxCell id="8OBh5h36qt_DKstB2xnP-200" value="" style="rhombus;whiteSpace=wrap;html=1;" vertex="1" parent="1">
          <mxGeometry x="70" y="1730" width="20" height="20" as="geometry" />
        </mxCell>
        <mxCell id="8OBh5h36qt_DKstB2xnP-201" value="" style="rhombus;whiteSpace=wrap;html=1;" vertex="1" parent="1">
          <mxGeometry x="710" y="1275" width="20" height="20" as="geometry" />
        </mxCell>
        <mxCell id="8OBh5h36qt_DKstB2xnP-203" value="" style="endArrow=classic;html=1;rounded=0;exitX=0.5;exitY=1;exitDx=0;exitDy=0;entryX=0.5;entryY=0;entryDx=0;entryDy=0;" edge="1" parent="1" source="8OBh5h36qt_DKstB2xnP-157" target="8OBh5h36qt_DKstB2xnP-201">
          <mxGeometry width="50" height="50" relative="1" as="geometry">
            <mxPoint x="520" y="1320" as="sourcePoint" />
            <mxPoint x="570" y="1270" as="targetPoint" />
          </mxGeometry>
        </mxCell>
        <mxCell id="8OBh5h36qt_DKstB2xnP-204" value="" style="endArrow=classic;html=1;rounded=0;exitX=0.5;exitY=1;exitDx=0;exitDy=0;entryX=0.5;entryY=0;entryDx=0;entryDy=0;" edge="1" parent="1" source="8OBh5h36qt_DKstB2xnP-74" target="8OBh5h36qt_DKstB2xnP-200">
          <mxGeometry width="50" height="50" relative="1" as="geometry">
            <mxPoint x="270" y="1745" as="sourcePoint" />
            <mxPoint x="320" y="1695" as="targetPoint" />
          </mxGeometry>
        </mxCell>
        <mxCell id="8OBh5h36qt_DKstB2xnP-205" value="" style="rhombus;whiteSpace=wrap;html=1;" vertex="1" parent="1">
          <mxGeometry x="390" y="2318" width="20" height="20" as="geometry" />
        </mxCell>
        <mxCell id="8OBh5h36qt_DKstB2xnP-206" value="" style="endArrow=classic;html=1;rounded=0;exitX=0.5;exitY=1;exitDx=0;exitDy=0;entryX=0.5;entryY=0;entryDx=0;entryDy=0;" edge="1" parent="1" source="8OBh5h36qt_DKstB2xnP-139" target="8OBh5h36qt_DKstB2xnP-205">
          <mxGeometry width="50" height="50" relative="1" as="geometry">
            <mxPoint x="320" y="2210" as="sourcePoint" />
            <mxPoint x="370" y="2160" as="targetPoint" />
          </mxGeometry>
        </mxCell>
        <mxCell id="8OBh5h36qt_DKstB2xnP-207" value="" style="endArrow=classic;html=1;rounded=0;exitX=0.5;exitY=1;exitDx=0;exitDy=0;entryX=1;entryY=0.5;entryDx=0;entryDy=0;" edge="1" parent="1" source="8OBh5h36qt_DKstB2xnP-192" target="8OBh5h36qt_DKstB2xnP-205">
          <mxGeometry width="50" height="50" relative="1" as="geometry">
            <mxPoint x="830" y="2100" as="sourcePoint" />
            <mxPoint x="880" y="2050" as="targetPoint" />
            <Array as="points">
              <mxPoint x="760" y="2330" />
            </Array>
          </mxGeometry>
        </mxCell>
        <mxCell id="8OBh5h36qt_DKstB2xnP-209" value="" style="endArrow=classic;html=1;rounded=0;exitX=0.5;exitY=1;exitDx=0;exitDy=0;entryX=0;entryY=0.5;entryDx=0;entryDy=0;" edge="1" parent="1" source="8OBh5h36qt_DKstB2xnP-200" target="8OBh5h36qt_DKstB2xnP-205">
          <mxGeometry width="50" height="50" relative="1" as="geometry">
            <mxPoint x="20" y="1870" as="sourcePoint" />
            <mxPoint x="70" y="1820" as="targetPoint" />
            <Array as="points">
              <mxPoint x="70" y="2330" />
            </Array>
          </mxGeometry>
        </mxCell>
        <mxCell id="8OBh5h36qt_DKstB2xnP-210" value="" style="endArrow=classic;html=1;rounded=0;exitX=1;exitY=0.5;exitDx=0;exitDy=0;entryX=1;entryY=0.5;entryDx=0;entryDy=0;" edge="1" parent="1" source="8OBh5h36qt_DKstB2xnP-201" target="8OBh5h36qt_DKstB2xnP-205">
          <mxGeometry width="50" height="50" relative="1" as="geometry">
            <mxPoint x="1010" y="1310" as="sourcePoint" />
            <mxPoint x="1060" y="1260" as="targetPoint" />
            <Array as="points">
              <mxPoint x="1000" y="1285" />
              <mxPoint x="1000" y="2330" />
            </Array>
          </mxGeometry>
        </mxCell>
        <mxCell id="8OBh5h36qt_DKstB2xnP-211" value="" style="endArrow=classic;html=1;rounded=0;exitX=0.5;exitY=1;exitDx=0;exitDy=0;" edge="1" parent="1" source="8OBh5h36qt_DKstB2xnP-205" target="8OBh5h36qt_DKstB2xnP-212">
          <mxGeometry width="50" height="50" relative="1" as="geometry">
            <mxPoint x="370" y="2400" as="sourcePoint" />
            <mxPoint x="420" y="2350" as="targetPoint" />
          </mxGeometry>
        </mxCell>
        <mxCell id="8OBh5h36qt_DKstB2xnP-212" value="" style="ellipse;html=1;shape=endState;fillColor=#000000;strokeColor=none;" vertex="1" parent="1">
          <mxGeometry x="384" y="2390" width="30" height="30" as="geometry" />
        </mxCell>
      </root>
    </mxGraphModel>
  </diagram>
</mxfile>
